<svg xmlns="http://www.w3.org/2000/svg" xmlns:xlink="http://www.w3.org/1999/xlink" width="3200" zoomAndPan="magnify" viewBox="0 0 2400 1199.999942" height="1600" preserveAspectRatio="xMidYMid meet" version="1.0"><defs><g/><clipPath id="82467b24b8"><rect x="0" width="1063" y="0" height="550"/></clipPath><clipPath id="24c458dcd5"><path d="M 1201 278 L 1325.296875 278 L 1325.296875 403 L 1201 403 Z M 1201 278 " clip-rule="nonzero"/></clipPath><clipPath id="af23e91ec2"><path d="M 1185 239.230469 L 1249 239.230469 L 1249 303 L 1185 303 Z M 1185 239.230469 " clip-rule="nonzero"/></clipPath><clipPath id="a7a32d0ed8"><path d="M 1043.296875 306 L 1296 306 L 1296 560 L 1043.296875 560 Z M 1043.296875 306 " clip-rule="nonzero"/></clipPath><clipPath id="12f5236b5c"><path d="M 1164 556 L 1174 556 L 1174 960.730469 L 1164 960.730469 Z M 1164 556 " clip-rule="nonzero"/></clipPath><clipPath id="cde39f1c90"><rect x="0" width="989" y="0" height="550"/></clipPath></defs><g transform="matrix(1, 0, 0, 1, 1238, 370)"><g clip-path="url(#82467b24b8)"><g fill="#ffec3d" fill-opacity="1"><g transform="translate(0.211509, 435.657947)"><g><path d="M 169.5625 -315.671875 C 209.851562 -315.671875 241.421875 -306.050781 264.265625 -286.8125 C 287.117188 -267.570312 298.546875 -241.117188 298.546875 -207.453125 C 298.546875 -173.773438 287.117188 -147.390625 264.265625 -128.296875 C 241.421875 -109.210938 209.851562 -99.671875 169.5625 -99.671875 L 84.78125 -99.671875 L 84.78125 0 L 51.40625 0 L 51.40625 -315.671875 Z M 168.65625 -128.984375 C 199.925781 -128.984375 223.828125 -135.820312 240.359375 -149.5 C 256.898438 -163.175781 265.171875 -182.492188 265.171875 -207.453125 C 265.171875 -233.003906 256.898438 -252.617188 240.359375 -266.296875 C 223.828125 -279.972656 199.925781 -286.8125 168.65625 -286.8125 L 84.78125 -286.8125 L 84.78125 -128.984375 Z M 168.65625 -128.984375 "/></g></g></g><g fill="#ffec3d" fill-opacity="1"><g transform="translate(314.9825, 435.657947)"><g><path d="M 165.5 -239.015625 C 195.269531 -239.015625 218.945312 -230.367188 236.53125 -213.078125 C 254.125 -195.796875 262.921875 -170.617188 262.921875 -137.546875 L 262.921875 0 L 230.890625 0 L 230.890625 -134.390625 C 230.890625 -159.046875 224.726562 -177.835938 212.40625 -190.765625 C 200.082031 -203.691406 182.492188 -210.15625 159.640625 -210.15625 C 134.085938 -210.15625 113.867188 -202.5625 98.984375 -187.375 C 84.109375 -172.195312 76.671875 -151.226562 76.671875 -124.46875 L 76.671875 0 L 44.640625 0 L 44.640625 -334.625 L 76.671875 -334.625 L 76.671875 -195.71875 C 85.390625 -209.550781 97.410156 -220.222656 112.734375 -227.734375 C 128.066406 -235.253906 145.65625 -239.015625 165.5 -239.015625 Z M 165.5 -239.015625 "/></g></g></g><g fill="#ffec3d" fill-opacity="1"><g transform="translate(612.166002, 435.657947)"><g><path d="M 141.609375 2.25 C 118.753906 2.25 98.15625 -2.929688 79.8125 -13.296875 C 61.476562 -23.671875 47.050781 -38.023438 36.53125 -56.359375 C 26.007812 -74.703125 20.75 -95.453125 20.75 -118.609375 C 20.75 -141.753906 26.007812 -162.492188 36.53125 -180.828125 C 47.050781 -199.171875 61.476562 -213.453125 79.8125 -223.671875 C 98.15625 -233.898438 118.753906 -239.015625 141.609375 -239.015625 C 164.453125 -239.015625 185.039062 -233.898438 203.375 -223.671875 C 221.71875 -213.453125 236.078125 -199.171875 246.453125 -180.828125 C 256.828125 -162.492188 262.015625 -141.753906 262.015625 -118.609375 C 262.015625 -95.453125 256.828125 -74.703125 246.453125 -56.359375 C 236.078125 -38.023438 221.71875 -23.671875 203.375 -13.296875 C 185.039062 -2.929688 164.453125 2.25 141.609375 2.25 Z M 141.609375 -26.15625 C 158.441406 -26.15625 173.546875 -29.988281 186.921875 -37.65625 C 200.304688 -45.320312 210.753906 -56.21875 218.265625 -70.34375 C 225.785156 -84.476562 229.546875 -100.566406 229.546875 -118.609375 C 229.546875 -136.640625 225.785156 -152.71875 218.265625 -166.84375 C 210.753906 -180.976562 200.304688 -191.878906 186.921875 -199.546875 C 173.546875 -207.210938 158.441406 -211.046875 141.609375 -211.046875 C 124.765625 -211.046875 109.65625 -207.210938 96.28125 -199.546875 C 82.90625 -191.878906 72.382812 -180.976562 64.71875 -166.84375 C 57.050781 -152.71875 53.21875 -136.640625 53.21875 -118.609375 C 53.21875 -100.566406 57.050781 -84.476562 64.71875 -70.34375 C 72.382812 -56.21875 82.90625 -45.320312 96.28125 -37.65625 C 109.65625 -29.988281 124.765625 -26.15625 141.609375 -26.15625 Z M 141.609375 -26.15625 "/></g></g></g><g fill="#ffec3d" fill-opacity="1"><g transform="translate(885.899519, 435.657947)"><g><path d="M 169.5625 -14.4375 C 163.550781 -9.019531 156.109375 -4.882812 147.234375 -2.03125 C 138.367188 0.820312 129.125 2.25 119.5 2.25 C 97.257812 2.25 80.125 -3.757812 68.09375 -15.78125 C 56.070312 -27.8125 50.0625 -44.800781 50.0625 -66.75 L 50.0625 -210.15625 L 7.671875 -210.15625 L 7.671875 -237.203125 L 50.0625 -237.203125 L 50.0625 -289.078125 L 82.078125 -289.078125 L 82.078125 -237.203125 L 154.234375 -237.203125 L 154.234375 -210.15625 L 82.078125 -210.15625 L 82.078125 -68.546875 C 82.078125 -54.421875 85.609375 -43.671875 92.671875 -36.296875 C 99.734375 -28.929688 109.878906 -25.25 123.109375 -25.25 C 129.722656 -25.25 136.113281 -26.300781 142.28125 -28.40625 C 148.445312 -30.507812 153.785156 -33.519531 158.296875 -37.4375 Z M 169.5625 -14.4375 "/></g></g></g></g></g><g clip-path="url(#24c458dcd5)"><path fill="#fefefe" d="M 1289.03125 333.183594 C 1279.6875 331.386719 1272.378906 324.078125 1270.582031 314.734375 L 1263.601562 278.429688 C 1263.550781 278.164062 1263.171875 278.164062 1263.121094 278.429688 L 1256.140625 314.734375 C 1254.34375 324.078125 1247.035156 331.386719 1237.691406 333.183594 L 1201.386719 340.164062 C 1201.125 340.214844 1201.125 340.59375 1201.386719 340.644531 L 1237.691406 347.625 C 1247.035156 349.421875 1254.34375 356.730469 1256.140625 366.074219 L 1263.121094 402.378906 C 1263.171875 402.640625 1263.550781 402.640625 1263.601562 402.378906 L 1270.582031 366.074219 C 1272.378906 356.730469 1279.6875 349.421875 1289.03125 347.625 L 1325.335938 340.644531 C 1325.597656 340.59375 1325.597656 340.214844 1325.335938 340.164062 Z M 1289.03125 333.183594 " fill-opacity="1" fill-rule="nonzero"/></g><g clip-path="url(#af23e91ec2)"><path fill="#fefefe" d="M 1213.367188 283.886719 L 1216.871094 302.109375 C 1217.109375 302.109375 1220.613281 283.886719 1220.613281 283.886719 C 1221.515625 279.195312 1225.1875 275.527344 1229.875 274.625 L 1248.101562 271.121094 C 1248.101562 270.882812 1229.875 267.375 1229.875 267.375 C 1225.1875 266.476562 1221.515625 262.804688 1220.613281 258.113281 L 1217.109375 239.890625 C 1216.871094 239.890625 1213.367188 258.113281 1213.367188 258.113281 C 1212.464844 262.804688 1208.796875 266.476562 1204.105469 267.375 L 1185.882812 270.882812 C 1185.882812 271.121094 1204.105469 274.625 1204.105469 274.625 C 1208.796875 275.527344 1212.464844 279.195312 1213.367188 283.886719 Z M 1213.367188 283.886719 " fill-opacity="1" fill-rule="nonzero"/></g><g clip-path="url(#a7a32d0ed8)"><path fill="#fefefe" d="M 1182.304688 374.355469 L 1169.363281 306.867188 L 1156.417969 374.355469 C 1151.796875 397.621094 1133.921875 415.652344 1110.65625 420.273438 L 1043.320312 433.21875 L 1110.65625 446.007812 C 1118.515625 447.546875 1125.910156 450.628906 1132.691406 455.558594 C 1135.464844 457.253906 1138.238281 459.722656 1141.011719 462.648438 C 1144.09375 465.730469 1146.867188 469.273438 1149.023438 473.125 C 1152.414062 478.519531 1155.03125 484.835938 1156.417969 491.773438 L 1158.269531 501.324219 L 1168.746094 555.410156 L 1169.363281 559.261719 L 1169.976562 556.027344 L 1181.996094 493.3125 L 1182.304688 491.773438 C 1183.847656 483.910156 1186.925781 476.667969 1191.550781 470.351562 C 1194.324219 465.730469 1198.332031 461.414062 1202.800781 458.027344 C 1205.417969 455.714844 1208.347656 453.710938 1211.273438 452.324219 C 1216.667969 449.242188 1222.214844 447.238281 1228.070312 446.007812 L 1295.714844 433.0625 L 1228.070312 420.273438 C 1204.804688 415.652344 1186.929688 397.621094 1182.304688 374.355469 Z M 1182.304688 374.355469 " fill-opacity="1" fill-rule="nonzero"/></g><g clip-path="url(#12f5236b5c)"><path fill="#fefefe" d="M 1168.902344 576.828125 L 1164.894531 556.179688 L 1164.894531 960.042969 L 1173.832031 960.042969 L 1173.832031 556.796875 L 1169.980469 576.828125 C 1169.824219 577.445312 1168.902344 577.445312 1168.902344 576.828125 Z M 1168.902344 576.828125 " fill-opacity="1" fill-rule="nonzero"/></g><path fill="#fefefe" d="M 1130.378906 782.074219 L 1138.238281 782.074219 L 1138.238281 465.265625 C 1135.925781 462.804688 1133.304688 460.492188 1130.378906 458.640625 Z M 1130.378906 782.074219 " fill-opacity="1" fill-rule="nonzero"/><path fill="#fefefe" d="M 1205.113281 773.289062 L 1212.96875 773.289062 L 1212.96875 455.714844 C 1210.195312 457.101562 1207.578125 458.949219 1205.113281 461.109375 Z M 1205.113281 773.289062 " fill-opacity="1" fill-rule="nonzero"/><path fill="#fefefe" d="M 1185.851562 494.082031 L 1185.851562 873.753906 L 1194.632812 873.753906 L 1194.632812 472.511719 C 1190.472656 478.367188 1187.546875 485.144531 1186.160156 492.542969 Z M 1185.851562 494.082031 " fill-opacity="1" fill-rule="nonzero"/><path fill="#fefefe" d="M 1145.632812 474.976562 L 1145.632812 865.589844 L 1154.414062 865.589844 L 1154.414062 502.09375 L 1152.566406 492.542969 C 1151.332031 486.222656 1149.023438 480.214844 1145.632812 474.976562 Z M 1145.632812 474.976562 " fill-opacity="1" fill-rule="nonzero"/><g transform="matrix(1, 0, 0, 1, 92, 370)"><g clip-path="url(#cde39f1c90)"><g fill="#fefefe" fill-opacity="1"><g transform="translate(1.00815, 435.657947)"><g><path d="M 188.5 2.703125 C 157.238281 2.703125 129.054688 -4.207031 103.953125 -18.03125 C 78.847656 -31.863281 59.15625 -51.03125 44.875 -75.53125 C 30.59375 -100.039062 23.453125 -127.476562 23.453125 -157.84375 C 23.453125 -188.207031 30.59375 -215.640625 44.875 -240.140625 C 59.15625 -264.640625 78.921875 -283.804688 104.171875 -297.640625 C 129.429688 -311.472656 157.691406 -318.390625 188.953125 -318.390625 C 212.398438 -318.390625 234.046875 -314.476562 253.890625 -306.65625 C 273.734375 -298.84375 290.570312 -287.421875 304.40625 -272.390625 L 283.203125 -251.1875 C 258.554688 -276.144531 227.441406 -288.625 189.859375 -288.625 C 164.898438 -288.625 142.195312 -282.910156 121.75 -271.484375 C 101.3125 -260.054688 85.304688 -244.421875 73.734375 -224.578125 C 62.160156 -204.734375 56.375 -182.488281 56.375 -157.84375 C 56.375 -133.1875 62.160156 -110.9375 73.734375 -91.09375 C 85.304688 -71.25 101.3125 -55.613281 121.75 -44.1875 C 142.195312 -32.769531 164.898438 -27.0625 189.859375 -27.0625 C 227.742188 -27.0625 258.859375 -39.6875 283.203125 -64.9375 L 304.40625 -43.75 C 290.570312 -28.71875 273.660156 -17.21875 253.671875 -9.25 C 233.679688 -1.28125 211.957031 2.703125 188.5 2.703125 Z M 188.5 2.703125 "/></g></g></g><g fill="#fefefe" fill-opacity="1"><g transform="translate(309.465637, 435.657947)"><g><path d="M 188.5 2.703125 C 157.238281 2.703125 129.054688 -4.207031 103.953125 -18.03125 C 78.847656 -31.863281 59.15625 -51.03125 44.875 -75.53125 C 30.59375 -100.039062 23.453125 -127.476562 23.453125 -157.84375 C 23.453125 -188.207031 30.59375 -215.640625 44.875 -240.140625 C 59.15625 -264.640625 78.921875 -283.804688 104.171875 -297.640625 C 129.429688 -311.472656 157.691406 -318.390625 188.953125 -318.390625 C 212.398438 -318.390625 234.046875 -314.476562 253.890625 -306.65625 C 273.734375 -298.84375 290.570312 -287.421875 304.40625 -272.390625 L 283.203125 -251.1875 C 258.554688 -276.144531 227.441406 -288.625 189.859375 -288.625 C 164.898438 -288.625 142.195312 -282.910156 121.75 -271.484375 C 101.3125 -260.054688 85.304688 -244.421875 73.734375 -224.578125 C 62.160156 -204.734375 56.375 -182.488281 56.375 -157.84375 C 56.375 -133.1875 62.160156 -110.9375 73.734375 -91.09375 C 85.304688 -71.25 101.3125 -55.613281 121.75 -44.1875 C 142.195312 -32.769531 164.898438 -27.0625 189.859375 -27.0625 C 227.742188 -27.0625 258.859375 -39.6875 283.203125 -64.9375 L 304.40625 -43.75 C 290.570312 -28.71875 273.660156 -17.21875 253.671875 -9.25 C 233.679688 -1.28125 211.957031 2.703125 188.5 2.703125 Z M 188.5 2.703125 "/></g></g></g><g fill="#fefefe" fill-opacity="1"><g transform="translate(624.687557, 435.657947)"><g><path d="M 51.40625 -315.671875 L 179.9375 -315.671875 C 213.3125 -315.671875 242.773438 -308.984375 268.328125 -295.609375 C 293.878906 -282.234375 313.71875 -263.59375 327.84375 -239.6875 C 341.976562 -215.789062 349.046875 -188.507812 349.046875 -157.84375 C 349.046875 -127.175781 341.976562 -99.890625 327.84375 -75.984375 C 313.71875 -52.085938 293.878906 -33.445312 268.328125 -20.0625 C 242.773438 -6.6875 213.3125 0 179.9375 0 L 51.40625 0 Z M 178.125 -28.859375 C 205.789062 -28.859375 229.992188 -34.34375 250.734375 -45.3125 C 271.484375 -56.289062 287.566406 -71.472656 298.984375 -90.859375 C 310.410156 -110.253906 316.125 -132.582031 316.125 -157.84375 C 316.125 -183.09375 310.410156 -205.410156 298.984375 -224.796875 C 287.566406 -244.191406 271.484375 -259.375 250.734375 -270.34375 C 229.992188 -281.320312 205.789062 -286.8125 178.125 -286.8125 L 84.78125 -286.8125 L 84.78125 -28.859375 Z M 178.125 -28.859375 "/></g></g></g></g></g></svg>